<?xml version="1.0" ?><!DOCTYPE svg  PUBLIC '-//W3C//DTD SVG 1.1//EN'  'http://www.w3.org/Graphics/SVG/1.1/DTD/svg11.dtd'><svg height="140px" id="Layer_1" style="enable-background:new 0 0 140 140;" version="1.1" viewBox="0 0 140 140" width="140px" xml:space="preserve" xmlns="http://www.w3.org/2000/svg" xmlns:xlink="http://www.w3.org/1999/xlink"><g><path d="M70,130c-33.084,0-60-26.916-60-60s26.916-60,60-60s60,26.916,60,60S103.084,130,70,130z" style="fill:#F2F2F2;"/><circle cx="70" cy="70" r="58.064" style="fill:#4681A0;"/><g><path d="M35.161,79.973c-0.146,0-0.568-0.031-0.702-0.097c-0.333-0.163-0.824-0.5-0.824-0.871V60.883    c0-0.37,0.491-0.708,0.824-0.87c0.333-0.161,0.869-0.119,1.16,0.108l11.615,9.061c0.234,0.184,0.405,0.465,0.405,0.762    c0,0.297-0.119,0.577-0.354,0.762l-11.537,9.062C35.576,79.903,35.374,79.973,35.161,79.973z" style="fill:#ABC4C4;"/><path d="M47.306,69.183l-11.547-9.061c-0.291-0.228-0.688-0.269-1.021-0.108    c-0.1,0.048-0.183,0.114-0.258,0.189l10.365,9.493c0.225,0.206,0.354,0.521,0.354,0.853c0,0.333-0.131,0.647-0.354,0.854    l-9.196,8.423c0.036-0.021,0.075-0.033,0.108-0.059l11.547-9.062c0.234-0.185,0.37-0.465,0.37-0.762    C47.675,69.647,47.54,69.367,47.306,69.183z" style="fill:#8FB0B0;"/><path d="M88.635,69h-6V57.419c0-0.535-0.466-0.968-1-0.968c-0.535,0-1,0.433-1,0.968V69h-5V53.548    c0-0.535-0.465-0.968-1-0.968s-1,0.433-1,0.968V69h-5V53.548c0-0.535-0.465-0.968-1-0.968s-1,0.433-1,0.968V69h-5V57.419    c0-0.535-0.465-0.968-1-0.968c-0.534,0-1,0.433-1,0.968V69h-5v-7.71v-0.871c0-0.535-0.465-0.968-1-0.968c-0.534,0-1,0.433-1,0.968    V69h-4v-4.807c0-0.535-0.465-0.968-1-0.968s-1,0.433-1,0.968V69v2v3.839c0,0.535,0.465,0.968,1,0.968s1-0.433,1-0.968V71h4v8.613    c0,0.535,0.466,0.968,1,0.968c0.535,0,1-0.433,1-0.968V78.71V71h5v10.613c0,0.535,0.466,0.968,1,0.968c0.535,0,1-0.433,1-0.968V71    h5v10.613c0,0.535,0.465,0.968,1,0.968s1-0.433,1-0.968V71h5v10.613c0,0.535,0.465,0.968,1,0.968s1-0.433,1-0.968V71h5v7.709    c0,0.535,0.465,0.968,1,0.968c0.534,0,1-0.433,1-0.968V71h6V69z" style="fill:#E6E6E6;"/><path d="M89.635,84.525c-0.443,0-1.274-0.016-1.707-0.045c-0.508-0.035-1.293-0.457-1.293-0.965V56.374    c0-0.447,0.698-0.836,1.134-0.941c0.508-0.122,1.286-0.183,1.927-0.183c3.451,0,8.959,1.869,13.558,4.652    c2.519,1.523,8.424,5.554,8.424,10.042C111.676,77.316,99.076,84.525,89.635,84.525z" style="fill:#ABC4C4;"/><path d="M103.351,59.902c-4.598-2.783-10.008-4.652-13.46-4.652c-0.64,0-1.222,0.062-1.729,0.183    c-0.023,0.006-0.042,0.021-0.065,0.028c3.333,0.563,7.621,2.311,11.384,4.729c2.52,1.619,8.376,5.898,8.376,10.666    c0,4.637-4.438,9.213-10.02,12.174c7.249-2.49,13.891-7.744,13.891-13.085C111.727,65.456,105.869,61.426,103.351,59.902z" style="fill:#8FB0B0;"/></g></g></svg>