<?xml version="1.0" ?><!DOCTYPE svg  PUBLIC '-//W3C//DTD SVG 1.1//EN'  'http://www.w3.org/Graphics/SVG/1.1/DTD/svg11.dtd'><svg height="140px" id="Layer_1" style="enable-background:new 0 0 140 140;" version="1.1" viewBox="0 0 140 140" width="140px" xml:space="preserve" xmlns="http://www.w3.org/2000/svg" xmlns:xlink="http://www.w3.org/1999/xlink"><g><path d="M70,130c-33.084,0-60-26.917-60-60s26.916-60,60-60s60,26.917,60,60S103.084,130,70,130z" style="fill:#F2F2F2;"/><circle cx="70" cy="70" r="58.064" style="fill:#3DB39E;"/><g><g><path d="M41.755,89.196c-5.468,0-10.087-5.239-10.087-11.229c0-2.622,0.932-5.17,2.641-7.108     c-1.709-1.938-2.641-4.434-2.641-7.042c0-5.745,4.525-10.42,10.087-10.42c4.853,0,8.495,4.936,9.651,7.936h37.942     c1.155-3,4.798-7.959,9.649-7.959c5.656,0,10.089,4.531,10.089,10.328c0,2.629-0.978,5.238-2.647,7.172     c1.672,1.934,2.647,4.545,2.647,7.174c0,5.844-4.619,11.141-10.089,11.141c-5.004,0-8.668-3.855-9.742-6.855H51.498     C50.422,85.333,46.759,89.196,41.755,89.196z" style="fill:#FFF9D5;"/></g><path d="M99,53.374c-4.854,0-8.495,4.959-9.65,7.959H70v21h19.257c1.075,3,4.739,6.856,9.743,6.856    c5.469,0,10.088-5.297,10.088-11.142c0-2.629-0.977-5.241-2.648-7.174c1.672-1.934,2.648-4.542,2.648-7.172    C109.088,57.905,104.656,53.374,99,53.374z" style="fill:#F2EDCA;"/><path d="M34.309,70.859c-1.709,1.938-2.641,4.487-2.641,7.108c0,5.989,4.619,11.229,10.087,11.229    c5.004,0,8.667-3.863,9.745-6.863h37.757c1.075,3,4.739,6.856,9.743,6.856c5.469,0,10.088-5.297,10.088-11.142    c0-2.629-0.977-5.241-2.648-7.174c0.004-0.004,0.008-0.01,0.012-0.014L34.309,70.859L34.309,70.859z" style="fill:#E6E1C0;"/><path d="M106.449,70.859H70v11.474h19.257c1.075,3,4.739,6.856,9.743,6.856    c5.469,0,10.088-5.297,10.088-11.142c0-2.629-0.977-5.241-2.648-7.174C106.443,70.87,106.447,70.864,106.449,70.859z" style="fill:#D9D4B5;"/></g></g></svg>