<?xml version="1.0" ?><svg baseProfile="tiny" height="24px" version="1.2" viewBox="0 0 24 24" width="24px" xml:space="preserve" xmlns="http://www.w3.org/2000/svg" xmlns:xlink="http://www.w3.org/1999/xlink"><g id="Layer_1"><path d="M17,7H6c-1.654,0-3,1.346-3,3v7c0,1.654,1.346,3,3,3h11c1.654,0,3-1.346,3-3v-7C20,8.346,18.654,7,17,7z M18,17   c0,0.552-0.448,1-1,1H6c-0.552,0-1-0.448-1-1v-4h13V17z M18,11H5v-1c0-0.552,0.448-1,1-1h11c0.552,0,1,0.448,1,1V11z"/><path d="M14,16h2c0.276,0,0.5-0.224,0.5-0.5S16.276,15,16,15h-2c-0.276,0-0.5,0.224-0.5,0.5S13.724,16,14,16z"/></g></svg>