<?xml version="1.0" ?><svg baseProfile="tiny" height="512px" id="Layer_1" version="1.2" viewBox="2 2 22 22" width="512px" xml:space="preserve" xmlns="http://www.w3.org/2000/svg" xmlns:xlink="http://www.w3.org/1999/xlink"><path fill="#000" d="M19,7H5C3.896,7,3,7.896,3,9v9c0,1.104,0.896,2,2,2h14c1.104,0,2-0.896,2-2V9C21,7.896,20.104,7,19,7z M9.316,14.316  l1.602,1.4c0.305,0.266,0.691,0.398,1.082,0.398s0.777-0.133,1.082-0.398l1.602-1.4l-0.037,0.037l3.646,3.646H5.707l3.646-3.646  L9.316,14.316z M5,17.293V10.54l3.602,3.151L5,17.293z M15.398,13.691L19,10.54v6.75L15.398,13.691z M19,9v0.21l-6.576,5.754  c-0.227,0.198-0.621,0.198-0.848,0L5,9.21V9H19z"/></svg>
