<?xml version="1.0" ?><svg baseProfile="tiny" height="512px" id="Layer_1" fill="#FFF" version="1.2" viewBox="0 0 24 24" width="512px" xml:space="preserve" xmlns="http://www.w3.org/2000/svg" xmlns:xlink="http://www.w3.org/1999/xlink"><g><g><path d="M19,18c0.55,0,1,0.45,1,1s-0.45,1-1,1H5c-0.55,0-1-0.45-1-1s0.45-1,1-1H19 M19,16H5c-1.654,0-3,1.346-3,3s1.346,3,3,3h14    c1.654,0,3-1.346,3-3S20.654,16,19,16z"/></g></g><g><g><path d="M19,11c0.55,0,1,0.45,1,1s-0.45,1-1,1H5c-0.55,0-1-0.45-1-1s0.45-1,1-1H19 M19,9H5c-1.654,0-3,1.346-3,3s1.346,3,3,3h14    c1.654,0,3-1.346,3-3S20.654,9,19,9z"/></g></g><g><g><path d="M19,4c0.55,0,1,0.45,1,1s-0.45,1-1,1H5C4.45,6,4,5.55,4,5s0.45-1,1-1H19 M19,2H5C3.346,2,2,3.346,2,5s1.346,3,3,3h14    c1.654,0,3-1.346,3-3S20.654,2,19,2z"/></g></g></svg>
